<mxfile host="app.diagrams.net" modified="2024-02-09T23:27:55.325Z" agent="Mozilla/5.0 (Windows NT 10.0; Win64; x64) AppleWebKit/537.36 (KHTML, like Gecko) Chrome/120.0.0.0 Safari/537.36" etag="C_CsO-WRP-XCrIY33hoA" version="23.1.2" type="github">
  <diagram name="Page-1" id="s-W5pD7xYukalvyYx4Mm">
    <mxGraphModel dx="1578" dy="804" grid="1" gridSize="10" guides="1" tooltips="1" connect="1" arrows="1" fold="1" page="1" pageScale="1" pageWidth="5000" pageHeight="5000" math="0" shadow="0">
      <root>
        <mxCell id="0" />
        <mxCell id="1" parent="0" />
        <mxCell id="mxIFGxPGUhRat5Siqde1-1" value="" style="rounded=0;whiteSpace=wrap;html=1;" vertex="1" parent="1">
          <mxGeometry x="180" y="175" width="800" height="455" as="geometry" />
        </mxCell>
        <mxCell id="mxIFGxPGUhRat5Siqde1-7" value="" style="rounded=0;whiteSpace=wrap;html=1;" vertex="1" parent="1">
          <mxGeometry x="190" y="250" width="780" height="250" as="geometry" />
        </mxCell>
        <mxCell id="mxIFGxPGUhRat5Siqde1-4" value="" style="rounded=1;whiteSpace=wrap;html=1;" vertex="1" parent="1">
          <mxGeometry x="230" y="200" width="740" height="40" as="geometry" />
        </mxCell>
        <mxCell id="mxIFGxPGUhRat5Siqde1-5" value="Horizontal Container" style="swimlane;horizontal=0;whiteSpace=wrap;html=1;" vertex="1" parent="1">
          <mxGeometry x="200" y="510" width="760" height="110" as="geometry" />
        </mxCell>
        <mxCell id="mxIFGxPGUhRat5Siqde1-3" value="" style="rounded=1;whiteSpace=wrap;html=1;" vertex="1" parent="1">
          <mxGeometry x="200" y="190" width="100" height="100" as="geometry" />
        </mxCell>
        <mxCell id="mxIFGxPGUhRat5Siqde1-10" value="" style="ellipse;whiteSpace=wrap;html=1;" vertex="1" parent="1">
          <mxGeometry x="315" y="260" width="50" height="50" as="geometry" />
        </mxCell>
        <mxCell id="mxIFGxPGUhRat5Siqde1-11" value="" style="ellipse;whiteSpace=wrap;html=1;" vertex="1" parent="1">
          <mxGeometry x="320" y="320" width="40" height="40" as="geometry" />
        </mxCell>
        <mxCell id="mxIFGxPGUhRat5Siqde1-12" value="" style="ellipse;whiteSpace=wrap;html=1;" vertex="1" parent="1">
          <mxGeometry x="320" y="370" width="40" height="40" as="geometry" />
        </mxCell>
        <mxCell id="mxIFGxPGUhRat5Siqde1-13" value="" style="ellipse;whiteSpace=wrap;html=1;" vertex="1" parent="1">
          <mxGeometry x="320" y="420" width="40" height="40" as="geometry" />
        </mxCell>
        <mxCell id="mxIFGxPGUhRat5Siqde1-18" value="" style="ellipse;whiteSpace=wrap;html=1;" vertex="1" parent="1">
          <mxGeometry x="420" y="260" width="50" height="50" as="geometry" />
        </mxCell>
        <mxCell id="mxIFGxPGUhRat5Siqde1-19" value="" style="ellipse;whiteSpace=wrap;html=1;" vertex="1" parent="1">
          <mxGeometry x="425" y="320" width="40" height="40" as="geometry" />
        </mxCell>
        <mxCell id="mxIFGxPGUhRat5Siqde1-20" value="" style="ellipse;whiteSpace=wrap;html=1;" vertex="1" parent="1">
          <mxGeometry x="425" y="370" width="40" height="40" as="geometry" />
        </mxCell>
      </root>
    </mxGraphModel>
  </diagram>
</mxfile>
